<?xml version="1.0" encoding="utf-8" standalone="no"?>
<!DOCTYPE svg PUBLIC "-//W3C//DTD SVG 1.1//EN"
  "http://www.w3.org/Graphics/SVG/1.1/DTD/svg11.dtd">
<svg xmlns:xlink="http://www.w3.org/1999/xlink" width="784.233125pt" height="426.15625pt" viewBox="0 0 784.233125 426.15625" xmlns="http://www.w3.org/2000/svg" version="1.1">
 <metadata>
  <rdf:RDF xmlns:dc="http://purl.org/dc/elements/1.1/" xmlns:cc="http://creativecommons.org/ns#" xmlns:rdf="http://www.w3.org/1999/02/22-rdf-syntax-ns#">
   <cc:Work>
    <dc:type rdf:resource="http://purl.org/dc/dcmitype/StillImage"/>
    <dc:date>2026-05-06T18:56:17.828622</dc:date>
    <dc:format>image/svg+xml</dc:format>
    <dc:creator>
     <cc:Agent>
      <dc:title>Matplotlib v3.10.0, https://matplotlib.org/</dc:title>
     </cc:Agent>
    </dc:creator>
   </cc:Work>
  </rdf:RDF>
 </metadata>
 <defs>
  <style type="text/css">*{stroke-linejoin: round; stroke-linecap: butt}</style>
 </defs>
 <g id="figure_1">
  <g id="patch_1">
   <path d="M 0 426.15625 
L 784.233125 426.15625 
L 784.233125 0 
L 0 0 
z
" style="fill: #ffffff"/>
  </g>
  <g id="axes_1">
   <g id="patch_2">
    <path d="M 53.328125 388.6 
L 764.308125 388.6 
L 764.308125 55.36 
L 53.328125 55.36 
z
" style="fill: #ffffff"/>
   </g>
   <g id="FillBetweenPolyCollection_1">
    <path d="M 92.466623 388.6 
L 92.466623 388.6 
L 171.392322 388.6 
L 250.318022 388.6 
L 329.243721 388.6 
L 408.385655 388.6 
L 487.311355 388.6 
L 566.237054 388.6 
L 645.162754 388.6 
L 724.304688 388.6 
L 803.230388 388.6 
L 803.230388 328.205192 
L 803.230388 328.205192 
L 724.304688 345.251036 
L 645.162754 333.586973 
L 566.237054 353.2372 
L 487.311355 372.304355 
L 408.385655 380.601404 
L 329.243721 380.995104 
L 250.318022 387.460775 
L 171.392322 388.315661 
L 92.466623 388.6 
z
" clip-path="url(#pe916cfa769)" style="fill: #d68a2c"/>
   </g>
   <g id="FillBetweenPolyCollection_2">
    <path d="M 92.466623 388.6 
L 92.466623 388.6 
L 171.392322 388.315661 
L 250.318022 387.460775 
L 329.243721 380.995104 
L 408.385655 380.601404 
L 487.311355 372.304355 
L 566.237054 353.2372 
L 645.162754 333.586973 
L 724.304688 345.251036 
L 803.230388 328.205192 
L 803.230388 278.380088 
L 803.230388 278.380088 
L 724.304688 312.085272 
L 645.162754 287.514544 
L 566.237054 299.827949 
L 487.311355 356.341373 
L 408.385655 372.166859 
L 329.243721 369.985058 
L 250.318022 385.751097 
L 171.392322 388.315661 
L 92.466623 388.6 
z
" clip-path="url(#pe916cfa769)" style="fill: #2854c3"/>
   </g>
   <g id="FillBetweenPolyCollection_3">
    <path d="M 92.466623 388.32613 
L 92.466623 388.6 
L 171.392322 388.315661 
L 250.318022 385.751097 
L 329.243721 369.985058 
L 408.385655 372.166859 
L 487.311355 356.341373 
L 566.237054 299.827949 
L 645.162754 287.514544 
L 724.304688 312.085272 
L 803.230388 278.380088 
L 803.230388 243.495953 
L 803.230388 243.495953 
L 724.304688 292.39289 
L 645.162754 262.323728 
L 566.237054 259.947882 
L 487.311355 336.239307 
L 408.385655 353.475832 
L 329.243721 354.404934 
L 250.318022 384.78741 
L 171.392322 385.574249 
L 92.466623 388.32613 
z
" clip-path="url(#pe916cfa769)" style="fill: #d62728"/>
   </g>
   <g id="FillBetweenPolyCollection_4">
    <path d="M 92.466623 387.507137 
L 92.466623 388.32613 
L 171.392322 385.574249 
L 250.318022 384.78741 
L 329.243721 354.404934 
L 408.385655 353.475832 
L 487.311355 336.239307 
L 566.237054 259.947882 
L 645.162754 262.323728 
L 724.304688 292.39289 
L 803.230388 243.495953 
L 803.230388 209.581954 
L 803.230388 209.581954 
L 724.304688 272.271569 
L 645.162754 247.704579 
L 566.237054 241.995182 
L 487.311355 318.587397 
L 408.385655 341.889444 
L 329.243721 351.543692 
L 250.318022 382.618415 
L 171.392322 383.251027 
L 92.466623 387.507137 
z
" clip-path="url(#pe916cfa769)" style="fill: #a92b0f"/>
   </g>
   <g id="FillBetweenPolyCollection_5">
    <path d="M 92.466623 387.196065 
L 92.466623 387.507137 
L 171.392322 383.251027 
L 250.318022 382.618415 
L 329.243721 351.543692 
L 408.385655 341.889444 
L 487.311355 318.587397 
L 566.237054 241.995182 
L 645.162754 247.704579 
L 724.304688 272.271569 
L 803.230388 209.581954 
L 803.230388 176.632202 
L 803.230388 176.632202 
L 724.304688 254.907176 
L 645.162754 229.214515 
L 566.237054 231.149365 
L 487.311355 315.389754 
L 408.385655 335.491072 
L 329.243721 345.126439 
L 250.318022 380.992954 
L 171.392322 382.64412 
L 92.466623 387.196065 
z
" clip-path="url(#pe916cfa769)" style="fill: #20763e"/>
   </g>
   <g id="FillBetweenPolyCollection_6">
    <path d="M 92.466623 387.196065 
L 92.466623 387.196065 
L 171.392322 382.64412 
L 250.318022 380.992954 
L 329.243721 345.126439 
L 408.385655 335.491072 
L 487.311355 315.389754 
L 566.237054 231.149365 
L 645.162754 229.214515 
L 724.304688 254.907176 
L 803.230388 176.632202 
L 803.230388 143.380913 
L 803.230388 143.380913 
L 724.304688 235.066829 
L 645.162754 210.089876 
L 566.237054 230.484506 
L 487.311355 315.389754 
L 408.385655 335.491072 
L 329.243721 345.126439 
L 250.318022 380.992954 
L 171.392322 382.64412 
L 92.466623 387.196065 
z
" clip-path="url(#pe916cfa769)" style="fill: #c0b93c"/>
   </g>
   <g id="FillBetweenPolyCollection_7">
    <path d="M 92.466623 386.850222 
L 92.466623 387.196065 
L 171.392322 382.64412 
L 250.318022 380.992954 
L 329.243721 345.126439 
L 408.385655 335.491072 
L 487.311355 315.389754 
L 566.237054 230.484506 
L 645.162754 210.089876 
L 724.304688 235.066829 
L 803.230388 143.380913 
L 803.230388 71.228571 
L 803.230388 71.228571 
L 724.304688 195.422028 
L 645.162754 163.282764 
L 566.237054 183.154237 
L 487.311355 292.96082 
L 408.385655 317.827571 
L 329.243721 332.620763 
L 250.318022 378.899951 
L 171.392322 379.776989 
L 92.466623 386.850222 
z
" clip-path="url(#pe916cfa769)" style="fill: #bdbdbd"/>
   </g>
   <g id="matplotlib.axis_1">
    <g id="xtick_1">
     <g id="line2d_1">
      <defs>
       <path id="meea1977232" d="M 0 0 
L 0 3.5 
" style="stroke: #000000; stroke-width: 0.8"/>
      </defs>
      <g>
       <use xlink:href="#meea1977232" x="53.328125" y="388.6" style="stroke: #000000; stroke-width: 0.8"/>
      </g>
     </g>
     <g id="text_1">
      <text style="font-size: 10px; font-family: 'DejaVu Sans'; text-anchor: middle" x="53.328125" y="403.198437" transform="rotate(-0 53.328125 403.198437)">2016</text>
     </g>
    </g>
    <g id="xtick_2">
     <g id="line2d_2">
      <g>
       <use xlink:href="#meea1977232" x="132.470059" y="388.6" style="stroke: #000000; stroke-width: 0.8"/>
      </g>
     </g>
     <g id="text_2">
      <text style="font-size: 10px; font-family: 'DejaVu Sans'; text-anchor: middle" x="132.470059" y="403.198437" transform="rotate(-0 132.470059 403.198437)">2017</text>
     </g>
    </g>
    <g id="xtick_3">
     <g id="line2d_3">
      <g>
       <use xlink:href="#meea1977232" x="211.395759" y="388.6" style="stroke: #000000; stroke-width: 0.8"/>
      </g>
     </g>
     <g id="text_3">
      <text style="font-size: 10px; font-family: 'DejaVu Sans'; text-anchor: middle" x="211.395759" y="403.198437" transform="rotate(-0 211.395759 403.198437)">2018</text>
     </g>
    </g>
    <g id="xtick_4">
     <g id="line2d_4">
      <g>
       <use xlink:href="#meea1977232" x="290.321458" y="388.6" style="stroke: #000000; stroke-width: 0.8"/>
      </g>
     </g>
     <g id="text_4">
      <text style="font-size: 10px; font-family: 'DejaVu Sans'; text-anchor: middle" x="290.321458" y="403.198437" transform="rotate(-0 290.321458 403.198437)">2019</text>
     </g>
    </g>
    <g id="xtick_5">
     <g id="line2d_5">
      <g>
       <use xlink:href="#meea1977232" x="369.247158" y="388.6" style="stroke: #000000; stroke-width: 0.8"/>
      </g>
     </g>
     <g id="text_5">
      <text style="font-size: 10px; font-family: 'DejaVu Sans'; text-anchor: middle" x="369.247158" y="403.198437" transform="rotate(-0 369.247158 403.198437)">2020</text>
     </g>
    </g>
    <g id="xtick_6">
     <g id="line2d_6">
      <g>
       <use xlink:href="#meea1977232" x="448.389092" y="388.6" style="stroke: #000000; stroke-width: 0.8"/>
      </g>
     </g>
     <g id="text_6">
      <text style="font-size: 10px; font-family: 'DejaVu Sans'; text-anchor: middle" x="448.389092" y="403.198437" transform="rotate(-0 448.389092 403.198437)">2021</text>
     </g>
    </g>
    <g id="xtick_7">
     <g id="line2d_7">
      <g>
       <use xlink:href="#meea1977232" x="527.314792" y="388.6" style="stroke: #000000; stroke-width: 0.8"/>
      </g>
     </g>
     <g id="text_7">
      <text style="font-size: 10px; font-family: 'DejaVu Sans'; text-anchor: middle" x="527.314792" y="403.198437" transform="rotate(-0 527.314792 403.198437)">2022</text>
     </g>
    </g>
    <g id="xtick_8">
     <g id="line2d_8">
      <g>
       <use xlink:href="#meea1977232" x="606.240491" y="388.6" style="stroke: #000000; stroke-width: 0.8"/>
      </g>
     </g>
     <g id="text_8">
      <text style="font-size: 10px; font-family: 'DejaVu Sans'; text-anchor: middle" x="606.240491" y="403.198437" transform="rotate(-0 606.240491 403.198437)">2023</text>
     </g>
    </g>
    <g id="xtick_9">
     <g id="line2d_9">
      <g>
       <use xlink:href="#meea1977232" x="685.166191" y="388.6" style="stroke: #000000; stroke-width: 0.8"/>
      </g>
     </g>
     <g id="text_9">
      <text style="font-size: 10px; font-family: 'DejaVu Sans'; text-anchor: middle" x="685.166191" y="403.198437" transform="rotate(-0 685.166191 403.198437)">2024</text>
     </g>
    </g>
    <g id="xtick_10">
     <g id="line2d_10">
      <g>
       <use xlink:href="#meea1977232" x="764.308125" y="388.6" style="stroke: #000000; stroke-width: 0.8"/>
      </g>
     </g>
     <g id="text_10">
      <text style="font-size: 10px; font-family: 'DejaVu Sans'; text-anchor: middle" x="764.308125" y="403.198437" transform="rotate(-0 764.308125 403.198437)">2025</text>
     </g>
    </g>
    <g id="text_11">
     <text style="font-size: 10px; font-family: 'DejaVu Sans'; text-anchor: middle" x="408.818125" y="416.876562" transform="rotate(-0 408.818125 416.876562)">Year</text>
    </g>
   </g>
   <g id="matplotlib.axis_2">
    <g id="ytick_1">
     <g id="line2d_11">
      <path d="M 53.328125 388.6 
L 764.308125 388.6 
" clip-path="url(#pe916cfa769)" style="fill: none; stroke: #b0b0b0; stroke-opacity: 0.1; stroke-width: 0.8; stroke-linecap: square"/>
     </g>
     <g id="line2d_12">
      <defs>
       <path id="m9bb6d3bcab" d="M 0 0 
L -3.5 0 
" style="stroke: #000000; stroke-width: 0.8"/>
      </defs>
      <g>
       <use xlink:href="#m9bb6d3bcab" x="53.328125" y="388.6" style="stroke: #000000; stroke-width: 0.8"/>
      </g>
     </g>
     <g id="text_12">
      <text style="font-size: 10px; font-family: 'DejaVu Sans'; text-anchor: end" x="46.328125" y="392.399219" transform="rotate(-0 46.328125 392.399219)">0</text>
     </g>
    </g>
    <g id="ytick_2">
     <g id="line2d_13">
      <path d="M 53.328125 341.864487 
L 764.308125 341.864487 
" clip-path="url(#pe916cfa769)" style="fill: none; stroke: #b0b0b0; stroke-opacity: 0.1; stroke-width: 0.8; stroke-linecap: square"/>
     </g>
     <g id="line2d_14">
      <g>
       <use xlink:href="#m9bb6d3bcab" x="53.328125" y="341.864487" style="stroke: #000000; stroke-width: 0.8"/>
      </g>
     </g>
     <g id="text_13">
      <text style="font-size: 10px; font-family: 'DejaVu Sans'; text-anchor: end" x="46.328125" y="345.663706" transform="rotate(-0 46.328125 345.663706)">500</text>
     </g>
    </g>
    <g id="ytick_3">
     <g id="line2d_15">
      <path d="M 53.328125 295.128974 
L 764.308125 295.128974 
" clip-path="url(#pe916cfa769)" style="fill: none; stroke: #b0b0b0; stroke-opacity: 0.1; stroke-width: 0.8; stroke-linecap: square"/>
     </g>
     <g id="line2d_16">
      <g>
       <use xlink:href="#m9bb6d3bcab" x="53.328125" y="295.128974" style="stroke: #000000; stroke-width: 0.8"/>
      </g>
     </g>
     <g id="text_14">
      <text style="font-size: 10px; font-family: 'DejaVu Sans'; text-anchor: end" x="46.328125" y="298.928193" transform="rotate(-0 46.328125 298.928193)">1000</text>
     </g>
    </g>
    <g id="ytick_4">
     <g id="line2d_17">
      <path d="M 53.328125 248.393461 
L 764.308125 248.393461 
" clip-path="url(#pe916cfa769)" style="fill: none; stroke: #b0b0b0; stroke-opacity: 0.1; stroke-width: 0.8; stroke-linecap: square"/>
     </g>
     <g id="line2d_18">
      <g>
       <use xlink:href="#m9bb6d3bcab" x="53.328125" y="248.393461" style="stroke: #000000; stroke-width: 0.8"/>
      </g>
     </g>
     <g id="text_15">
      <text style="font-size: 10px; font-family: 'DejaVu Sans'; text-anchor: end" x="46.328125" y="252.19268" transform="rotate(-0 46.328125 252.19268)">1500</text>
     </g>
    </g>
    <g id="ytick_5">
     <g id="line2d_19">
      <path d="M 53.328125 201.657948 
L 764.308125 201.657948 
" clip-path="url(#pe916cfa769)" style="fill: none; stroke: #b0b0b0; stroke-opacity: 0.1; stroke-width: 0.8; stroke-linecap: square"/>
     </g>
     <g id="line2d_20">
      <g>
       <use xlink:href="#m9bb6d3bcab" x="53.328125" y="201.657948" style="stroke: #000000; stroke-width: 0.8"/>
      </g>
     </g>
     <g id="text_16">
      <text style="font-size: 10px; font-family: 'DejaVu Sans'; text-anchor: end" x="46.328125" y="205.457167" transform="rotate(-0 46.328125 205.457167)">2000</text>
     </g>
    </g>
    <g id="ytick_6">
     <g id="line2d_21">
      <path d="M 53.328125 154.922435 
L 764.308125 154.922435 
" clip-path="url(#pe916cfa769)" style="fill: none; stroke: #b0b0b0; stroke-opacity: 0.1; stroke-width: 0.8; stroke-linecap: square"/>
     </g>
     <g id="line2d_22">
      <g>
       <use xlink:href="#m9bb6d3bcab" x="53.328125" y="154.922435" style="stroke: #000000; stroke-width: 0.8"/>
      </g>
     </g>
     <g id="text_17">
      <text style="font-size: 10px; font-family: 'DejaVu Sans'; text-anchor: end" x="46.328125" y="158.721653" transform="rotate(-0 46.328125 158.721653)">2500</text>
     </g>
    </g>
    <g id="ytick_7">
     <g id="line2d_23">
      <path d="M 53.328125 108.186922 
L 764.308125 108.186922 
" clip-path="url(#pe916cfa769)" style="fill: none; stroke: #b0b0b0; stroke-opacity: 0.1; stroke-width: 0.8; stroke-linecap: square"/>
     </g>
     <g id="line2d_24">
      <g>
       <use xlink:href="#m9bb6d3bcab" x="53.328125" y="108.186922" style="stroke: #000000; stroke-width: 0.8"/>
      </g>
     </g>
     <g id="text_18">
      <text style="font-size: 10px; font-family: 'DejaVu Sans'; text-anchor: end" x="46.328125" y="111.98614" transform="rotate(-0 46.328125 111.98614)">3000</text>
     </g>
    </g>
    <g id="ytick_8">
     <g id="line2d_25">
      <path d="M 53.328125 61.451409 
L 764.308125 61.451409 
" clip-path="url(#pe916cfa769)" style="fill: none; stroke: #b0b0b0; stroke-opacity: 0.1; stroke-width: 0.8; stroke-linecap: square"/>
     </g>
     <g id="line2d_26">
      <g>
       <use xlink:href="#m9bb6d3bcab" x="53.328125" y="61.451409" style="stroke: #000000; stroke-width: 0.8"/>
      </g>
     </g>
     <g id="text_19">
      <text style="font-size: 10px; font-family: 'DejaVu Sans'; text-anchor: end" x="46.328125" y="65.250627" transform="rotate(-0 46.328125 65.250627)">3500</text>
     </g>
    </g>
    <g id="text_20">
     <text style="font-size: 10px; font-family: 'DejaVu Sans'; text-anchor: middle" x="14.798438" y="221.98" transform="rotate(-90 14.798438 221.98)">Billion cubic feet per year (Bcf/y)</text>
    </g>
   </g>
   <g id="line2d_27">
    <path d="M 527.314792 388.6 
L 527.314792 55.36 
" clip-path="url(#pe916cfa769)" style="fill: none; stroke-dasharray: 3.7,1.6; stroke-dashoffset: 0; stroke: #000000; stroke-opacity: 0.6"/>
   </g>
   <g id="patch_3">
    <path d="M 53.328125 388.6 
L 53.328125 55.36 
" style="fill: none; stroke: #000000; stroke-width: 0.8; stroke-linejoin: miter; stroke-linecap: square"/>
   </g>
   <g id="patch_4">
    <path d="M 764.308125 388.6 
L 764.308125 55.36 
" style="fill: none; stroke: #000000; stroke-width: 0.8; stroke-linejoin: miter; stroke-linecap: square"/>
   </g>
   <g id="patch_5">
    <path d="M 53.328125 388.6 
L 764.308125 388.6 
" style="fill: none; stroke: #000000; stroke-width: 0.8; stroke-linejoin: miter; stroke-linecap: square"/>
   </g>
   <g id="patch_6">
    <path d="M 53.328125 55.36 
L 764.308125 55.36 
" style="fill: none; stroke: #000000; stroke-width: 0.8; stroke-linejoin: miter; stroke-linecap: square"/>
   </g>
   <g id="text_21">
    <text style="font-size: 10px; font-family: 'DejaVu Sans'; text-anchor: start" x="559.966245" y="69.942313" transform="rotate(-0 559.966245 69.942313)">Russia invades Ukraine</text>
   </g>
   <g id="text_22">
    <text style="font-size: 12px; font-family: 'DejaVu Sans'; text-anchor: middle; fill: #696969" x="408.818125" y="45.36" transform="rotate(-0 408.818125 45.36)">A handful of European countries absorbed the U.S. LNG surge after Russia’s invasion of Ukraine</text>
   </g>
   <g id="legend_1">
    <g id="patch_7">
     <path d="M 62.328125 71.958438 
L 82.328125 71.958438 
L 82.328125 64.958438 
L 62.328125 64.958438 
z
" style="fill: #d68a2c"/>
    </g>
    <g id="text_23">
     <text style="font-size: 10px; font-family: 'DejaVu Sans'; text-anchor: start" x="90.328125" y="71.958438" transform="rotate(-0 90.328125 71.958438)">Netherlands</text>
    </g>
    <g id="patch_8">
     <path d="M 62.328125 86.636563 
L 82.328125 86.636563 
L 82.328125 79.636563 
L 62.328125 79.636563 
z
" style="fill: #2854c3"/>
    </g>
    <g id="text_24">
     <text style="font-size: 10px; font-family: 'DejaVu Sans'; text-anchor: start" x="90.328125" y="86.636563" transform="rotate(-0 90.328125 86.636563)">France</text>
    </g>
    <g id="patch_9">
     <path d="M 62.328125 101.314687 
L 82.328125 101.314687 
L 82.328125 94.314687 
L 62.328125 94.314687 
z
" style="fill: #d62728"/>
    </g>
    <g id="text_25">
     <text style="font-size: 10px; font-family: 'DejaVu Sans'; text-anchor: start" x="90.328125" y="101.314687" transform="rotate(-0 90.328125 101.314687)">Spain</text>
    </g>
    <g id="patch_10">
     <path d="M 62.328125 115.992813 
L 82.328125 115.992813 
L 82.328125 108.992813 
L 62.328125 108.992813 
z
" style="fill: #a92b0f"/>
    </g>
    <g id="text_26">
     <text style="font-size: 10px; font-family: 'DejaVu Sans'; text-anchor: start" x="90.328125" y="115.992813" transform="rotate(-0 90.328125 115.992813)">Turkey</text>
    </g>
    <g id="patch_11">
     <path d="M 62.328125 130.670937 
L 82.328125 130.670937 
L 82.328125 123.670937 
L 62.328125 123.670937 
z
" style="fill: #20763e"/>
    </g>
    <g id="text_27">
     <text style="font-size: 10px; font-family: 'DejaVu Sans'; text-anchor: start" x="90.328125" y="130.670937" transform="rotate(-0 90.328125 130.670937)">Italy</text>
    </g>
    <g id="patch_12">
     <path d="M 62.328125 145.349063 
L 82.328125 145.349063 
L 82.328125 138.349063 
L 62.328125 138.349063 
z
" style="fill: #c0b93c"/>
    </g>
    <g id="text_28">
     <text style="font-size: 10px; font-family: 'DejaVu Sans'; text-anchor: start" x="90.328125" y="145.349063" transform="rotate(-0 90.328125 145.349063)">Germany</text>
    </g>
    <g id="patch_13">
     <path d="M 62.328125 160.027188 
L 82.328125 160.027188 
L 82.328125 153.027188 
L 62.328125 153.027188 
z
" style="fill: #bdbdbd"/>
    </g>
    <g id="text_29">
     <text style="font-size: 10px; font-family: 'DejaVu Sans'; text-anchor: start" x="90.328125" y="160.027188" transform="rotate(-0 90.328125 160.027188)">Others</text>
    </g>
   </g>
  </g>
  <g id="text_30">
   <text style="font-size: 16px; font-family: 'DejaVu Sans'; text-anchor: middle" x="391.888125" y="19.3575" transform="rotate(-0 391.888125 19.3575)">Europe's U.S. LNG appetite takes off</text>
  </g>
 </g>
 <defs>
  <clipPath id="pe916cfa769">
   <rect x="53.328125" y="55.36" width="710.98" height="333.24"/>
  </clipPath>
 </defs>
</svg>
