<?xml version="1.0" encoding="utf-8" standalone="no"?>
<!DOCTYPE svg PUBLIC "-//W3C//DTD SVG 1.1//EN"
  "http://www.w3.org/Graphics/SVG/1.1/DTD/svg11.dtd">
<svg xmlns:xlink="http://www.w3.org/1999/xlink" width="784.260625pt" height="426.15625pt" viewBox="0 0 784.260625 426.15625" xmlns="http://www.w3.org/2000/svg" version="1.1">
 <metadata>
  <rdf:RDF xmlns:dc="http://purl.org/dc/elements/1.1/" xmlns:cc="http://creativecommons.org/ns#" xmlns:rdf="http://www.w3.org/1999/02/22-rdf-syntax-ns#">
   <cc:Work>
    <dc:type rdf:resource="http://purl.org/dc/dcmitype/StillImage"/>
    <dc:date>2026-05-06T18:57:00.141704</dc:date>
    <dc:format>image/svg+xml</dc:format>
    <dc:creator>
     <cc:Agent>
      <dc:title>Matplotlib v3.10.0, https://matplotlib.org/</dc:title>
     </cc:Agent>
    </dc:creator>
   </cc:Work>
  </rdf:RDF>
 </metadata>
 <defs>
  <style type="text/css">*{stroke-linejoin: round; stroke-linecap: butt}</style>
 </defs>
 <g id="figure_1">
  <g id="patch_1">
   <path d="M 0 426.15625 
L 784.260625 426.15625 
L 784.260625 0 
L 0 0 
z
" style="fill: #ffffff"/>
  </g>
  <g id="axes_1">
   <g id="patch_2">
    <path d="M 46.965625 388.6 
L 764.335625 388.6 
L 764.335625 55.36 
L 46.965625 55.36 
z
" style="fill: #ffffff"/>
   </g>
   <g id="FillBetweenPolyCollection_1">
    <path d="M 86.455884 354.672666 
L 86.455884 388.6 
L 166.090935 388.6 
L 245.725987 388.6 
L 325.361039 388.6 
L 405.214269 388.6 
L 484.84932 388.6 
L 564.484372 388.6 
L 644.119424 388.6 
L 723.972654 388.6 
L 803.607705 388.6 
L 803.607705 160.655847 
L 803.607705 160.655847 
L 723.972654 211.900256 
L 644.119424 169.061099 
L 564.484372 158.987433 
L 484.84932 274.546427 
L 405.214269 260.483581 
L 325.361039 257.1197 
L 245.725987 340.862443 
L 166.090935 342.491193 
L 86.455884 354.672666 
z
" clip-path="url(#p834bf0c716)" style="fill: #1f4e79"/>
   </g>
   <g id="FillBetweenPolyCollection_2">
    <path d="M 86.455884 254.197374 
L 86.455884 354.672666 
L 166.090935 342.491193 
L 245.725987 340.862443 
L 325.361039 257.1197 
L 405.214269 260.483581 
L 484.84932 274.546427 
L 564.484372 158.987433 
L 644.119424 169.061099 
L 723.972654 211.900256 
L 803.607705 160.655847 
L 803.607705 106.2563 
L 803.607705 106.2563 
L 723.972654 101.405858 
L 644.119424 80.985706 
L 564.484372 81.442921 
L 484.84932 117.300789 
L 405.214269 104.678002 
L 325.361039 134.531103 
L 245.725987 168.709494 
L 166.090935 190.207151 
L 86.455884 254.197374 
z
" clip-path="url(#p834bf0c716)" style="fill: #4aa3df"/>
   </g>
   <g id="FillBetweenPolyCollection_3">
    <path d="M 86.455884 98.738779 
L 86.455884 254.197374 
L 166.090935 190.207151 
L 245.725987 168.709494 
L 325.361039 134.531103 
L 405.214269 104.678002 
L 484.84932 117.300789 
L 564.484372 81.442921 
L 644.119424 80.985706 
L 723.972654 101.405858 
L 803.607705 106.2563 
L 803.607705 86.316398 
L 803.607705 86.316398 
L 723.972654 70.863828 
L 644.119424 58.312036 
L 564.484372 60.277342 
L 484.84932 59.421485 
L 405.214269 62.358125 
L 325.361039 66.945465 
L 245.725987 74.518992 
L 166.090935 91.530731 
L 86.455884 98.738779 
z
" clip-path="url(#p834bf0c716)" style="fill: #9ecae1"/>
   </g>
   <g id="FillBetweenPolyCollection_4">
    <path d="M 86.455884 55.36 
L 86.455884 98.738779 
L 166.090935 91.530731 
L 245.725987 74.518992 
L 325.361039 66.945465 
L 405.214269 62.358125 
L 484.84932 59.421485 
L 564.484372 60.277342 
L 644.119424 58.312036 
L 723.972654 70.863828 
L 803.607705 86.316398 
L 803.607705 55.36 
L 803.607705 55.36 
L 723.972654 55.36 
L 644.119424 55.36 
L 564.484372 55.36 
L 484.84932 55.36 
L 405.214269 55.36 
L 325.361039 55.36 
L 245.725987 55.36 
L 166.090935 55.36 
L 86.455884 55.36 
z
" clip-path="url(#p834bf0c716)" style="fill: #d9d9d9"/>
   </g>
   <g id="matplotlib.axis_1">
    <g id="xtick_1">
     <g id="line2d_1">
      <defs>
       <path id="m3130131931" d="M 0 0 
L 0 3.5 
" style="stroke: #000000; stroke-width: 0.8"/>
      </defs>
      <g>
       <use xlink:href="#m3130131931" x="46.965625" y="388.6" style="stroke: #000000; stroke-width: 0.8"/>
      </g>
     </g>
     <g id="text_1">
      <text style="font-size: 10px; font-family: 'DejaVu Sans'; text-anchor: middle" x="46.965625" y="403.198437" transform="rotate(-0 46.965625 403.198437)">2016</text>
     </g>
    </g>
    <g id="xtick_2">
     <g id="line2d_2">
      <g>
       <use xlink:href="#m3130131931" x="126.818855" y="388.6" style="stroke: #000000; stroke-width: 0.8"/>
      </g>
     </g>
     <g id="text_2">
      <text style="font-size: 10px; font-family: 'DejaVu Sans'; text-anchor: middle" x="126.818855" y="403.198437" transform="rotate(-0 126.818855 403.198437)">2017</text>
     </g>
    </g>
    <g id="xtick_3">
     <g id="line2d_3">
      <g>
       <use xlink:href="#m3130131931" x="206.453907" y="388.6" style="stroke: #000000; stroke-width: 0.8"/>
      </g>
     </g>
     <g id="text_3">
      <text style="font-size: 10px; font-family: 'DejaVu Sans'; text-anchor: middle" x="206.453907" y="403.198437" transform="rotate(-0 206.453907 403.198437)">2018</text>
     </g>
    </g>
    <g id="xtick_4">
     <g id="line2d_4">
      <g>
       <use xlink:href="#m3130131931" x="286.088958" y="388.6" style="stroke: #000000; stroke-width: 0.8"/>
      </g>
     </g>
     <g id="text_4">
      <text style="font-size: 10px; font-family: 'DejaVu Sans'; text-anchor: middle" x="286.088958" y="403.198437" transform="rotate(-0 286.088958 403.198437)">2019</text>
     </g>
    </g>
    <g id="xtick_5">
     <g id="line2d_5">
      <g>
       <use xlink:href="#m3130131931" x="365.72401" y="388.6" style="stroke: #000000; stroke-width: 0.8"/>
      </g>
     </g>
     <g id="text_5">
      <text style="font-size: 10px; font-family: 'DejaVu Sans'; text-anchor: middle" x="365.72401" y="403.198437" transform="rotate(-0 365.72401 403.198437)">2020</text>
     </g>
    </g>
    <g id="xtick_6">
     <g id="line2d_6">
      <g>
       <use xlink:href="#m3130131931" x="445.57724" y="388.6" style="stroke: #000000; stroke-width: 0.8"/>
      </g>
     </g>
     <g id="text_6">
      <text style="font-size: 10px; font-family: 'DejaVu Sans'; text-anchor: middle" x="445.57724" y="403.198437" transform="rotate(-0 445.57724 403.198437)">2021</text>
     </g>
    </g>
    <g id="xtick_7">
     <g id="line2d_7">
      <g>
       <use xlink:href="#m3130131931" x="525.212292" y="388.6" style="stroke: #000000; stroke-width: 0.8"/>
      </g>
     </g>
     <g id="text_7">
      <text style="font-size: 10px; font-family: 'DejaVu Sans'; text-anchor: middle" x="525.212292" y="403.198437" transform="rotate(-0 525.212292 403.198437)">2022</text>
     </g>
    </g>
    <g id="xtick_8">
     <g id="line2d_8">
      <g>
       <use xlink:href="#m3130131931" x="604.847343" y="388.6" style="stroke: #000000; stroke-width: 0.8"/>
      </g>
     </g>
     <g id="text_8">
      <text style="font-size: 10px; font-family: 'DejaVu Sans'; text-anchor: middle" x="604.847343" y="403.198437" transform="rotate(-0 604.847343 403.198437)">2023</text>
     </g>
    </g>
    <g id="xtick_9">
     <g id="line2d_9">
      <g>
       <use xlink:href="#m3130131931" x="684.482395" y="388.6" style="stroke: #000000; stroke-width: 0.8"/>
      </g>
     </g>
     <g id="text_9">
      <text style="font-size: 10px; font-family: 'DejaVu Sans'; text-anchor: middle" x="684.482395" y="403.198437" transform="rotate(-0 684.482395 403.198437)">2024</text>
     </g>
    </g>
    <g id="xtick_10">
     <g id="line2d_10">
      <g>
       <use xlink:href="#m3130131931" x="764.335625" y="388.6" style="stroke: #000000; stroke-width: 0.8"/>
      </g>
     </g>
     <g id="text_10">
      <text style="font-size: 10px; font-family: 'DejaVu Sans'; text-anchor: middle" x="764.335625" y="403.198437" transform="rotate(-0 764.335625 403.198437)">2025</text>
     </g>
    </g>
    <g id="text_11">
     <text style="font-size: 10px; font-family: 'DejaVu Sans'; text-anchor: middle" x="405.650625" y="416.876562" transform="rotate(-0 405.650625 416.876562)">Year</text>
    </g>
   </g>
   <g id="matplotlib.axis_2">
    <g id="ytick_1">
     <g id="line2d_11">
      <path d="M 46.965625 388.6 
L 764.335625 388.6 
" clip-path="url(#p834bf0c716)" style="fill: none; stroke: #b0b0b0; stroke-opacity: 0.1; stroke-width: 0.8; stroke-linecap: square"/>
     </g>
     <g id="line2d_12">
      <defs>
       <path id="ma5e137dcd1" d="M 0 0 
L -3.5 0 
" style="stroke: #000000; stroke-width: 0.8"/>
      </defs>
      <g>
       <use xlink:href="#ma5e137dcd1" x="46.965625" y="388.6" style="stroke: #000000; stroke-width: 0.8"/>
      </g>
     </g>
     <g id="text_12">
      <text style="font-size: 10px; font-family: 'DejaVu Sans'; text-anchor: end" x="39.965625" y="392.399219" transform="rotate(-0 39.965625 392.399219)">0</text>
     </g>
    </g>
    <g id="ytick_2">
     <g id="line2d_13">
      <path d="M 46.965625 321.952 
L 764.335625 321.952 
" clip-path="url(#p834bf0c716)" style="fill: none; stroke: #b0b0b0; stroke-opacity: 0.1; stroke-width: 0.8; stroke-linecap: square"/>
     </g>
     <g id="line2d_14">
      <g>
       <use xlink:href="#ma5e137dcd1" x="46.965625" y="321.952" style="stroke: #000000; stroke-width: 0.8"/>
      </g>
     </g>
     <g id="text_13">
      <text style="font-size: 10px; font-family: 'DejaVu Sans'; text-anchor: end" x="39.965625" y="325.751219" transform="rotate(-0 39.965625 325.751219)">20</text>
     </g>
    </g>
    <g id="ytick_3">
     <g id="line2d_15">
      <path d="M 46.965625 255.304 
L 764.335625 255.304 
" clip-path="url(#p834bf0c716)" style="fill: none; stroke: #b0b0b0; stroke-opacity: 0.1; stroke-width: 0.8; stroke-linecap: square"/>
     </g>
     <g id="line2d_16">
      <g>
       <use xlink:href="#ma5e137dcd1" x="46.965625" y="255.304" style="stroke: #000000; stroke-width: 0.8"/>
      </g>
     </g>
     <g id="text_14">
      <text style="font-size: 10px; font-family: 'DejaVu Sans'; text-anchor: end" x="39.965625" y="259.103219" transform="rotate(-0 39.965625 259.103219)">40</text>
     </g>
    </g>
    <g id="ytick_4">
     <g id="line2d_17">
      <path d="M 46.965625 188.656 
L 764.335625 188.656 
" clip-path="url(#p834bf0c716)" style="fill: none; stroke: #b0b0b0; stroke-opacity: 0.1; stroke-width: 0.8; stroke-linecap: square"/>
     </g>
     <g id="line2d_18">
      <g>
       <use xlink:href="#ma5e137dcd1" x="46.965625" y="188.656" style="stroke: #000000; stroke-width: 0.8"/>
      </g>
     </g>
     <g id="text_15">
      <text style="font-size: 10px; font-family: 'DejaVu Sans'; text-anchor: end" x="39.965625" y="192.455219" transform="rotate(-0 39.965625 192.455219)">60</text>
     </g>
    </g>
    <g id="ytick_5">
     <g id="line2d_19">
      <path d="M 46.965625 122.008 
L 764.335625 122.008 
" clip-path="url(#p834bf0c716)" style="fill: none; stroke: #b0b0b0; stroke-opacity: 0.1; stroke-width: 0.8; stroke-linecap: square"/>
     </g>
     <g id="line2d_20">
      <g>
       <use xlink:href="#ma5e137dcd1" x="46.965625" y="122.008" style="stroke: #000000; stroke-width: 0.8"/>
      </g>
     </g>
     <g id="text_16">
      <text style="font-size: 10px; font-family: 'DejaVu Sans'; text-anchor: end" x="39.965625" y="125.807219" transform="rotate(-0 39.965625 125.807219)">80</text>
     </g>
    </g>
    <g id="ytick_6">
     <g id="line2d_21">
      <path d="M 46.965625 55.36 
L 764.335625 55.36 
" clip-path="url(#p834bf0c716)" style="fill: none; stroke: #b0b0b0; stroke-opacity: 0.1; stroke-width: 0.8; stroke-linecap: square"/>
     </g>
     <g id="line2d_22">
      <g>
       <use xlink:href="#ma5e137dcd1" x="46.965625" y="55.36" style="stroke: #000000; stroke-width: 0.8"/>
      </g>
     </g>
     <g id="text_17">
      <text style="font-size: 10px; font-family: 'DejaVu Sans'; text-anchor: end" x="39.965625" y="59.159219" transform="rotate(-0 39.965625 59.159219)">100</text>
     </g>
    </g>
    <g id="text_18">
     <text style="font-size: 10px; font-family: 'DejaVu Sans'; text-anchor: middle" x="14.798438" y="221.98" transform="rotate(-90 14.798438 221.98)">Share of total U.S. LNG exports (%)</text>
    </g>
   </g>
   <g id="line2d_23">
    <path d="M 525.212292 388.6 
L 525.212292 55.36 
" clip-path="url(#p834bf0c716)" style="fill: none; stroke-dasharray: 3.7,1.6; stroke-dashoffset: 0; stroke: #000000; stroke-opacity: 0.6"/>
   </g>
   <g id="patch_3">
    <path d="M 46.965625 388.6 
L 46.965625 55.36 
" style="fill: none; stroke: #000000; stroke-width: 0.8; stroke-linejoin: miter; stroke-linecap: square"/>
   </g>
   <g id="patch_4">
    <path d="M 764.335625 388.6 
L 764.335625 55.36 
" style="fill: none; stroke: #000000; stroke-width: 0.8; stroke-linejoin: miter; stroke-linecap: square"/>
   </g>
   <g id="patch_5">
    <path d="M 46.965625 388.6 
L 764.335625 388.6 
" style="fill: none; stroke: #000000; stroke-width: 0.8; stroke-linejoin: miter; stroke-linecap: square"/>
   </g>
   <g id="patch_6">
    <path d="M 46.965625 55.36 
L 764.335625 55.36 
" style="fill: none; stroke: #000000; stroke-width: 0.8; stroke-linejoin: miter; stroke-linecap: square"/>
   </g>
   <g id="text_19">
    <text style="font-size: 10px; font-family: 'DejaVu Sans'; text-anchor: start" x="558.157203" y="69.942313" transform="rotate(-0 558.157203 69.942313)">Russia invades Ukraine</text>
   </g>
   <g id="text_20">
    <text style="font-size: 12px; font-family: 'DejaVu Sans'; text-anchor: middle; fill: #696969" x="405.650625" y="45.36" transform="rotate(-0 405.650625 45.36)">Share of U.S. LNG exports have shifted geographically away from Latin America and other regions</text>
   </g>
   <g id="legend_1">
    <g id="patch_7">
     <path d="M 55.365625 135.415 
L 252.926875 135.415 
Q 255.326875 135.415 255.326875 133.015 
L 255.326875 63.76 
Q 255.326875 61.36 252.926875 61.36 
L 55.365625 61.36 
Q 52.965625 61.36 52.965625 63.76 
L 52.965625 133.015 
Q 52.965625 135.415 55.365625 135.415 
z
" style="fill: #ffffff; opacity: 0.85"/>
    </g>
    <g id="patch_8">
     <path d="M 57.765625 75.278125 
L 79.365625 75.278125 
L 79.365625 66.878125 
L 57.765625 66.878125 
z
" style="fill: #1f4e79"/>
    </g>
    <g id="text_21">
     <text style="font-size: 12px; font-family: 'DejaVu Sans'; text-anchor: start" x="88.965625" y="75.278125" transform="rotate(-0 88.965625 75.278125)">Europe</text>
    </g>
    <g id="patch_9">
     <path d="M 57.765625 92.891875 
L 79.365625 92.891875 
L 79.365625 84.491875 
L 57.765625 84.491875 
z
" style="fill: #4aa3df"/>
    </g>
    <g id="text_22">
     <text style="font-size: 12px; font-family: 'DejaVu Sans'; text-anchor: start" x="88.965625" y="92.891875" transform="rotate(-0 88.965625 92.891875)">Asia</text>
    </g>
    <g id="patch_10">
     <path d="M 57.765625 110.505625 
L 79.365625 110.505625 
L 79.365625 102.105625 
L 57.765625 102.105625 
z
" style="fill: #9ecae1"/>
    </g>
    <g id="text_23">
     <text style="font-size: 12px; font-family: 'DejaVu Sans'; text-anchor: start" x="88.965625" y="110.505625" transform="rotate(-0 88.965625 110.505625)">Latin America &amp; Caribbean</text>
    </g>
    <g id="patch_11">
     <path d="M 57.765625 128.119375 
L 79.365625 128.119375 
L 79.365625 119.719375 
L 57.765625 119.719375 
z
" style="fill: #d9d9d9"/>
    </g>
    <g id="text_24">
     <text style="font-size: 12px; font-family: 'DejaVu Sans'; text-anchor: start" x="88.965625" y="128.119375" transform="rotate(-0 88.965625 128.119375)">Rest of World</text>
    </g>
   </g>
  </g>
  <g id="text_25">
   <text style="font-size: 16px; font-family: 'DejaVu Sans'; text-anchor: middle" x="391.915625" y="19.3575" transform="rotate(-0 391.915625 19.3575)">Europe beats Asia as the main market for U.S. LNG</text>
  </g>
 </g>
 <defs>
  <clipPath id="p834bf0c716">
   <rect x="46.965625" y="55.36" width="717.37" height="333.24"/>
  </clipPath>
 </defs>
</svg>
