<?xml version="1.0" encoding="utf-8" standalone="no"?>
<!DOCTYPE svg PUBLIC "-//W3C//DTD SVG 1.1//EN"
  "http://www.w3.org/Graphics/SVG/1.1/DTD/svg11.dtd">
<svg xmlns:xlink="http://www.w3.org/1999/xlink" width="784.288125pt" height="426.15625pt" viewBox="0 0 784.288125 426.15625" xmlns="http://www.w3.org/2000/svg" version="1.1">
 <metadata>
  <rdf:RDF xmlns:dc="http://purl.org/dc/elements/1.1/" xmlns:cc="http://creativecommons.org/ns#" xmlns:rdf="http://www.w3.org/1999/02/22-rdf-syntax-ns#">
   <cc:Work>
    <dc:type rdf:resource="http://purl.org/dc/dcmitype/StillImage"/>
    <dc:date>2026-05-06T18:56:07.082751</dc:date>
    <dc:format>image/svg+xml</dc:format>
    <dc:creator>
     <cc:Agent>
      <dc:title>Matplotlib v3.10.0, https://matplotlib.org/</dc:title>
     </cc:Agent>
    </dc:creator>
   </cc:Work>
  </rdf:RDF>
 </metadata>
 <defs>
  <style type="text/css">*{stroke-linejoin: round; stroke-linecap: butt}</style>
 </defs>
 <g id="figure_1">
  <g id="patch_1">
   <path d="M 0 426.15625 
L 784.288125 426.15625 
L 784.288125 0 
L 0 0 
z
" style="fill: #ffffff"/>
  </g>
  <g id="axes_1">
   <g id="patch_2">
    <path d="M 53.328125 388.6 
L 777.088125 388.6 
L 777.088125 55.36 
L 53.328125 55.36 
z
" style="fill: #ffffff"/>
   </g>
   <g id="matplotlib.axis_1">
    <g id="xtick_1">
     <g id="line2d_1">
      <path d="M 53.328125 388.6 
L 53.328125 55.36 
" clip-path="url(#p012e5bbf78)" style="fill: none; stroke: #b0b0b0; stroke-opacity: 0.1; stroke-width: 0.8; stroke-linecap: square"/>
     </g>
     <g id="line2d_2">
      <defs>
       <path id="mff6fc4a3aa" d="M 0 0 
L 0 3.5 
" style="stroke: #000000; stroke-width: 0.8"/>
      </defs>
      <g>
       <use xlink:href="#mff6fc4a3aa" x="53.328125" y="388.6" style="stroke: #000000; stroke-width: 0.8"/>
      </g>
     </g>
     <g id="text_1">
      <text style="font-size: 10px; font-family: 'DejaVu Sans'; text-anchor: middle" x="53.328125" y="403.198437" transform="rotate(-0 53.328125 403.198437)">2005</text>
     </g>
    </g>
    <g id="xtick_2">
     <g id="line2d_3">
      <path d="M 225.656429 388.6 
L 225.656429 55.36 
" clip-path="url(#p012e5bbf78)" style="fill: none; stroke: #b0b0b0; stroke-opacity: 0.1; stroke-width: 0.8; stroke-linecap: square"/>
     </g>
     <g id="line2d_4">
      <g>
       <use xlink:href="#mff6fc4a3aa" x="225.656429" y="388.6" style="stroke: #000000; stroke-width: 0.8"/>
      </g>
     </g>
     <g id="text_2">
      <text style="font-size: 10px; font-family: 'DejaVu Sans'; text-anchor: middle" x="225.656429" y="403.198437" transform="rotate(-0 225.656429 403.198437)">2010</text>
     </g>
    </g>
    <g id="xtick_3">
     <g id="line2d_5">
      <path d="M 397.984732 388.6 
L 397.984732 55.36 
" clip-path="url(#p012e5bbf78)" style="fill: none; stroke: #b0b0b0; stroke-opacity: 0.1; stroke-width: 0.8; stroke-linecap: square"/>
     </g>
     <g id="line2d_6">
      <g>
       <use xlink:href="#mff6fc4a3aa" x="397.984732" y="388.6" style="stroke: #000000; stroke-width: 0.8"/>
      </g>
     </g>
     <g id="text_3">
      <text style="font-size: 10px; font-family: 'DejaVu Sans'; text-anchor: middle" x="397.984732" y="403.198437" transform="rotate(-0 397.984732 403.198437)">2015</text>
     </g>
    </g>
    <g id="xtick_4">
     <g id="line2d_7">
      <path d="M 570.313036 388.6 
L 570.313036 55.36 
" clip-path="url(#p012e5bbf78)" style="fill: none; stroke: #b0b0b0; stroke-opacity: 0.1; stroke-width: 0.8; stroke-linecap: square"/>
     </g>
     <g id="line2d_8">
      <g>
       <use xlink:href="#mff6fc4a3aa" x="570.313036" y="388.6" style="stroke: #000000; stroke-width: 0.8"/>
      </g>
     </g>
     <g id="text_4">
      <text style="font-size: 10px; font-family: 'DejaVu Sans'; text-anchor: middle" x="570.313036" y="403.198437" transform="rotate(-0 570.313036 403.198437)">2020</text>
     </g>
    </g>
    <g id="xtick_5">
     <g id="line2d_9">
      <path d="M 742.735714 388.6 
L 742.735714 55.36 
" clip-path="url(#p012e5bbf78)" style="fill: none; stroke: #b0b0b0; stroke-opacity: 0.1; stroke-width: 0.8; stroke-linecap: square"/>
     </g>
     <g id="line2d_10">
      <g>
       <use xlink:href="#mff6fc4a3aa" x="742.735714" y="388.6" style="stroke: #000000; stroke-width: 0.8"/>
      </g>
     </g>
     <g id="text_5">
      <text style="font-size: 10px; font-family: 'DejaVu Sans'; text-anchor: middle" x="742.735714" y="403.198437" transform="rotate(-0 742.735714 403.198437)">2025</text>
     </g>
    </g>
    <g id="text_6">
     <text style="font-size: 10px; font-family: 'DejaVu Sans'; text-anchor: middle" x="415.208125" y="416.876562" transform="rotate(-0 415.208125 416.876562)">Year</text>
    </g>
   </g>
   <g id="matplotlib.axis_2">
    <g id="ytick_1">
     <g id="line2d_11">
      <path d="M 53.328125 373.452727 
L 777.088125 373.452727 
" clip-path="url(#p012e5bbf78)" style="fill: none; stroke: #b0b0b0; stroke-opacity: 0.1; stroke-width: 0.8; stroke-linecap: square"/>
     </g>
     <g id="line2d_12">
      <defs>
       <path id="ma65322021a" d="M 0 0 
L -3.5 0 
" style="stroke: #000000; stroke-width: 0.8"/>
      </defs>
      <g>
       <use xlink:href="#ma65322021a" x="53.328125" y="373.452727" style="stroke: #000000; stroke-width: 0.8"/>
      </g>
     </g>
     <g id="text_7">
      <text style="font-size: 10px; font-family: 'DejaVu Sans'; text-anchor: end" x="46.328125" y="377.251946" transform="rotate(-0 46.328125 377.251946)">0</text>
     </g>
    </g>
    <g id="ytick_2">
     <g id="line2d_13">
      <path d="M 53.328125 305.930404 
L 777.088125 305.930404 
" clip-path="url(#p012e5bbf78)" style="fill: none; stroke: #b0b0b0; stroke-opacity: 0.1; stroke-width: 0.8; stroke-linecap: square"/>
     </g>
     <g id="line2d_14">
      <g>
       <use xlink:href="#ma65322021a" x="53.328125" y="305.930404" style="stroke: #000000; stroke-width: 0.8"/>
      </g>
     </g>
     <g id="text_8">
      <text style="font-size: 10px; font-family: 'DejaVu Sans'; text-anchor: end" x="46.328125" y="309.729622" transform="rotate(-0 46.328125 309.729622)">2000</text>
     </g>
    </g>
    <g id="ytick_3">
     <g id="line2d_15">
      <path d="M 53.328125 238.40808 
L 777.088125 238.40808 
" clip-path="url(#p012e5bbf78)" style="fill: none; stroke: #b0b0b0; stroke-opacity: 0.1; stroke-width: 0.8; stroke-linecap: square"/>
     </g>
     <g id="line2d_16">
      <g>
       <use xlink:href="#ma65322021a" x="53.328125" y="238.40808" style="stroke: #000000; stroke-width: 0.8"/>
      </g>
     </g>
     <g id="text_9">
      <text style="font-size: 10px; font-family: 'DejaVu Sans'; text-anchor: end" x="46.328125" y="242.207299" transform="rotate(-0 46.328125 242.207299)">4000</text>
     </g>
    </g>
    <g id="ytick_4">
     <g id="line2d_17">
      <path d="M 53.328125 170.885756 
L 777.088125 170.885756 
" clip-path="url(#p012e5bbf78)" style="fill: none; stroke: #b0b0b0; stroke-opacity: 0.1; stroke-width: 0.8; stroke-linecap: square"/>
     </g>
     <g id="line2d_18">
      <g>
       <use xlink:href="#ma65322021a" x="53.328125" y="170.885756" style="stroke: #000000; stroke-width: 0.8"/>
      </g>
     </g>
     <g id="text_10">
      <text style="font-size: 10px; font-family: 'DejaVu Sans'; text-anchor: end" x="46.328125" y="174.684975" transform="rotate(-0 46.328125 174.684975)">6000</text>
     </g>
    </g>
    <g id="ytick_5">
     <g id="line2d_19">
      <path d="M 53.328125 103.363433 
L 777.088125 103.363433 
" clip-path="url(#p012e5bbf78)" style="fill: none; stroke: #b0b0b0; stroke-opacity: 0.1; stroke-width: 0.8; stroke-linecap: square"/>
     </g>
     <g id="line2d_20">
      <g>
       <use xlink:href="#ma65322021a" x="53.328125" y="103.363433" style="stroke: #000000; stroke-width: 0.8"/>
      </g>
     </g>
     <g id="text_11">
      <text style="font-size: 10px; font-family: 'DejaVu Sans'; text-anchor: end" x="46.328125" y="107.162652" transform="rotate(-0 46.328125 107.162652)">8000</text>
     </g>
    </g>
    <g id="text_12">
     <text style="font-size: 10px; font-family: 'DejaVu Sans'; text-anchor: middle" x="14.798438" y="221.98" transform="rotate(-90 14.798438 221.98)">Billion cubic feet per year (Bcf/y)</text>
    </g>
   </g>
   <g id="line2d_21">
    <path d="M -1 350.871195 
L 1.327635 350.497771 
L 35.868795 344.616036 
L 70.315581 348.854311 
L 104.762367 349.011064 
L 139.209153 345.685725 
L 173.750313 340.931849 
L 208.197099 337.248709 
L 242.643885 335.07341 
L 277.09067 322.620234 
L 311.631831 318.799213 
L 346.078617 320.366238 
L 380.525402 322.330158 
L 414.972188 313.23929 
L 449.513349 294.605289 
L 483.960134 266.97664 
L 518.40692 251.647824 
L 552.853706 216.204816 
L 587.394866 195.035858 
L 621.841652 148.852918 
L 656.288438 140.283559 
L 690.735224 116.529138 
L 725.276384 113.270038 
L 759.72317 70.507273 
" clip-path="url(#p012e5bbf78)" style="fill: none; stroke-dasharray: 4.44,1.92; stroke-dashoffset: 0; stroke: #1f77b4; stroke-opacity: 0.4; stroke-width: 1.2"/>
   </g>
   <g id="line2d_22">
    <path d="M -1 353.096838 
L 1.327635 352.728506 
L 35.868795 346.724995 
L 70.315581 351.061177 
L 104.762367 351.068402 
L 139.209153 347.322635 
L 173.750313 342.255861 
L 208.197099 338.374813 
L 242.643885 337.260863 
L 277.09067 324.983549 
L 311.631831 319.754553 
L 346.078617 320.468804 
L 380.525402 322.886238 
L 414.972188 314.204657 
L 449.513349 300.920281 
L 483.960134 290.869853 
L 518.40692 288.222641 
L 552.853706 277.643682 
L 587.394866 275.736818 
L 621.841652 269.077395 
L 656.288438 270.792225 
L 690.735224 263.169833 
L 725.276384 260.737375 
L 759.72317 256.473441 
" clip-path="url(#p012e5bbf78)" style="fill: none; stroke: #ff7f0e; stroke-opacity: 0.4; stroke-width: 2; stroke-linecap: square"/>
   </g>
   <g id="line2d_23">
    <path d="M 311.631831 373.452727 
L 346.078617 373.452727 
L 380.525402 373.003366 
L 414.972188 372.895027 
L 449.513349 367.244961 
L 483.960134 349.603032 
L 518.40692 336.905898 
L 552.853706 312.078649 
L 587.394866 292.894814 
L 621.841652 253.281897 
L 656.288438 242.999058 
L 690.735224 226.850351 
L 725.276384 226.039172 
L 759.72317 187.495843 
" clip-path="url(#p012e5bbf78)" style="fill: none; stroke: #2ca02c; stroke-width: 2.5; stroke-linecap: square"/>
   </g>
   <g id="patch_3">
    <path d="M 53.328125 388.6 
L 53.328125 55.36 
" style="fill: none; stroke: #000000; stroke-width: 0.8; stroke-linejoin: miter; stroke-linecap: square"/>
   </g>
   <g id="patch_4">
    <path d="M 777.088125 388.6 
L 777.088125 55.36 
" style="fill: none; stroke: #000000; stroke-width: 0.8; stroke-linejoin: miter; stroke-linecap: square"/>
   </g>
   <g id="patch_5">
    <path d="M 53.328125 388.6 
L 777.088125 388.6 
" style="fill: none; stroke: #000000; stroke-width: 0.8; stroke-linejoin: miter; stroke-linecap: square"/>
   </g>
   <g id="patch_6">
    <path d="M 53.328125 55.36 
L 777.088125 55.36 
" style="fill: none; stroke: #000000; stroke-width: 0.8; stroke-linejoin: miter; stroke-linecap: square"/>
   </g>
   <g id="patch_7">
    <path d="M 628.900455 230.572594 
Q 625.667899 240.972246 622.767203 250.304252 
" style="fill: none; stroke: #000000; stroke-linecap: round"/>
    <path d="M 625.864365 247.078173 
L 622.767203 250.304252 
L 622.044637 245.890875 
" style="fill: none; stroke: #000000; stroke-linecap: round"/>
   </g>
   <g id="text_13">
    <text style="font-size: 10px; font-family: 'DejaVu Sans'; text-anchor: start" x="552.853706" y="224.58491" transform="rotate(-0 552.853706 224.58491)">LNG surpasses pipeline exports</text>
   </g>
   <g id="text_14">
    <text style="font-size: 12px; font-family: 'DejaVu Sans'; text-anchor: middle; fill: #696969" x="415.208125" y="45.36" transform="rotate(-0 415.208125 45.36)">New export terminals helped turn LNG into the main growth engine for U.S. natural gas exports</text>
   </g>
   <g id="legend_1">
    <g id="line2d_24">
     <path d="M 62.328125 68.458438 
L 72.328125 68.458438 
L 82.328125 68.458438 
" style="fill: none; stroke-dasharray: 4.44,1.92; stroke-dashoffset: 0; stroke: #1f77b4; stroke-opacity: 0.4; stroke-width: 1.2"/>
    </g>
    <g id="text_15">
     <text style="font-size: 10px; font-family: 'DejaVu Sans'; text-anchor: start" x="90.328125" y="71.958438" transform="rotate(-0 90.328125 71.958438)">Total natural gas exports</text>
    </g>
    <g id="line2d_25">
     <path d="M 62.328125 83.136563 
L 72.328125 83.136563 
L 82.328125 83.136563 
" style="fill: none; stroke: #ff7f0e; stroke-opacity: 0.4; stroke-width: 2; stroke-linecap: square"/>
    </g>
    <g id="text_16">
     <text style="font-size: 10px; font-family: 'DejaVu Sans'; text-anchor: start" x="90.328125" y="86.636563" transform="rotate(-0 90.328125 86.636563)">Pipeline exports (Canada and Mexico)</text>
    </g>
    <g id="line2d_26">
     <path d="M 62.328125 97.814687 
L 72.328125 97.814687 
L 82.328125 97.814687 
" style="fill: none; stroke: #2ca02c; stroke-width: 2.5; stroke-linecap: square"/>
    </g>
    <g id="text_17">
     <text style="font-size: 10px; font-family: 'DejaVu Sans'; text-anchor: start" x="90.328125" y="101.314687" transform="rotate(-0 90.328125 101.314687)">LNG exports by vessel</text>
    </g>
   </g>
  </g>
  <g id="text_18">
   <text style="font-size: 16px; font-family: 'DejaVu Sans'; text-anchor: middle" x="391.888125" y="19.3575" transform="rotate(-0 391.888125 19.3575)">America’s LNG export boom overtook pipeline gas</text>
  </g>
 </g>
 <defs>
  <clipPath id="p012e5bbf78">
   <rect x="53.328125" y="55.36" width="723.76" height="333.24"/>
  </clipPath>
 </defs>
</svg>
