<?xml version="1.0" encoding="utf-8" standalone="no"?>
<!DOCTYPE svg PUBLIC "-//W3C//DTD SVG 1.1//EN"
  "http://www.w3.org/Graphics/SVG/1.1/DTD/svg11.dtd">
<svg xmlns:xlink="http://www.w3.org/1999/xlink" width="787.625pt" height="456.911719pt" viewBox="0 0 787.625 456.911719" xmlns="http://www.w3.org/2000/svg" version="1.1">
 <metadata>
  <rdf:RDF xmlns:dc="http://purl.org/dc/elements/1.1/" xmlns:cc="http://creativecommons.org/ns#" xmlns:rdf="http://www.w3.org/1999/02/22-rdf-syntax-ns#">
   <cc:Work>
    <dc:type rdf:resource="http://purl.org/dc/dcmitype/StillImage"/>
    <dc:date>2026-05-06T17:14:11.283222</dc:date>
    <dc:format>image/svg+xml</dc:format>
    <dc:creator>
     <cc:Agent>
      <dc:title>Matplotlib v3.10.0, https://matplotlib.org/</dc:title>
     </cc:Agent>
    </dc:creator>
   </cc:Work>
  </rdf:RDF>
 </metadata>
 <defs>
  <style type="text/css">*{stroke-linejoin: round; stroke-linecap: butt}</style>
 </defs>
 <g id="figure_1">
  <g id="patch_1">
   <path d="M 0 456.911719 
L 787.625 456.911719 
L 787.625 0 
L 0 0 
z
" style="fill: #ffffff"/>
  </g>
  <g id="axes_1">
   <g id="patch_2">
    <path d="M 50.33 388.6 
L 767.7 388.6 
L 767.7 55.36 
L 50.33 55.36 
z
" style="fill: #ffffff"/>
   </g>
   <g id="FillBetweenPolyCollection_1">
    <path d="M 89.820259 354.672666 
L 89.820259 388.6 
L 169.45531 388.6 
L 249.090362 388.6 
L 328.725414 388.6 
L 408.578644 388.6 
L 488.213695 388.6 
L 567.848747 388.6 
L 647.483799 388.6 
L 727.337029 388.6 
L 806.97208 388.6 
L 806.97208 160.655847 
L 806.97208 160.655847 
L 727.337029 211.900256 
L 647.483799 169.061099 
L 567.848747 158.987433 
L 488.213695 274.546427 
L 408.578644 260.483581 
L 328.725414 257.1197 
L 249.090362 340.862443 
L 169.45531 342.491193 
L 89.820259 354.672666 
z
" clip-path="url(#p54b9043ae5)" style="fill: #1f4e79"/>
   </g>
   <g id="FillBetweenPolyCollection_2">
    <path d="M 89.820259 254.197374 
L 89.820259 354.672666 
L 169.45531 342.491193 
L 249.090362 340.862443 
L 328.725414 257.1197 
L 408.578644 260.483581 
L 488.213695 274.546427 
L 567.848747 158.987433 
L 647.483799 169.061099 
L 727.337029 211.900256 
L 806.97208 160.655847 
L 806.97208 106.2563 
L 806.97208 106.2563 
L 727.337029 101.405858 
L 647.483799 80.985706 
L 567.848747 81.442921 
L 488.213695 117.300789 
L 408.578644 104.678002 
L 328.725414 134.531103 
L 249.090362 168.709494 
L 169.45531 190.207151 
L 89.820259 254.197374 
z
" clip-path="url(#p54b9043ae5)" style="fill: #4aa3df"/>
   </g>
   <g id="FillBetweenPolyCollection_3">
    <path d="M 89.820259 98.738779 
L 89.820259 254.197374 
L 169.45531 190.207151 
L 249.090362 168.709494 
L 328.725414 134.531103 
L 408.578644 104.678002 
L 488.213695 117.300789 
L 567.848747 81.442921 
L 647.483799 80.985706 
L 727.337029 101.405858 
L 806.97208 106.2563 
L 806.97208 86.316398 
L 806.97208 86.316398 
L 727.337029 70.863828 
L 647.483799 58.312036 
L 567.848747 60.277342 
L 488.213695 59.421485 
L 408.578644 62.358125 
L 328.725414 66.945465 
L 249.090362 74.518992 
L 169.45531 91.530731 
L 89.820259 98.738779 
z
" clip-path="url(#p54b9043ae5)" style="fill: #9ecae1"/>
   </g>
   <g id="FillBetweenPolyCollection_4">
    <path d="M 89.820259 55.36 
L 89.820259 98.738779 
L 169.45531 91.530731 
L 249.090362 74.518992 
L 328.725414 66.945465 
L 408.578644 62.358125 
L 488.213695 59.421485 
L 567.848747 60.277342 
L 647.483799 58.312036 
L 727.337029 70.863828 
L 806.97208 86.316398 
L 806.97208 55.36 
L 806.97208 55.36 
L 727.337029 55.36 
L 647.483799 55.36 
L 567.848747 55.36 
L 488.213695 55.36 
L 408.578644 55.36 
L 328.725414 55.36 
L 249.090362 55.36 
L 169.45531 55.36 
L 89.820259 55.36 
z
" clip-path="url(#p54b9043ae5)" style="fill: #d9d9d9"/>
   </g>
   <g id="matplotlib.axis_1">
    <g id="xtick_1">
     <g id="line2d_1">
      <defs>
       <path id="mff93ddb71b" d="M 0 0 
L 0 3.5 
" style="stroke: #000000; stroke-width: 0.8"/>
      </defs>
      <g>
       <use xlink:href="#mff93ddb71b" x="50.33" y="388.6" style="stroke: #000000; stroke-width: 0.8"/>
      </g>
     </g>
     <g id="text_1">
      <text style="font-size: 10px; font-family: 'DejaVu Sans'; text-anchor: middle" x="50.33" y="403.198437" transform="rotate(-0 50.33 403.198437)">2016</text>
     </g>
    </g>
    <g id="xtick_2">
     <g id="line2d_2">
      <g>
       <use xlink:href="#mff93ddb71b" x="130.18323" y="388.6" style="stroke: #000000; stroke-width: 0.8"/>
      </g>
     </g>
     <g id="text_2">
      <text style="font-size: 10px; font-family: 'DejaVu Sans'; text-anchor: middle" x="130.18323" y="403.198437" transform="rotate(-0 130.18323 403.198437)">2017</text>
     </g>
    </g>
    <g id="xtick_3">
     <g id="line2d_3">
      <g>
       <use xlink:href="#mff93ddb71b" x="209.818282" y="388.6" style="stroke: #000000; stroke-width: 0.8"/>
      </g>
     </g>
     <g id="text_3">
      <text style="font-size: 10px; font-family: 'DejaVu Sans'; text-anchor: middle" x="209.818282" y="403.198437" transform="rotate(-0 209.818282 403.198437)">2018</text>
     </g>
    </g>
    <g id="xtick_4">
     <g id="line2d_4">
      <g>
       <use xlink:href="#mff93ddb71b" x="289.453333" y="388.6" style="stroke: #000000; stroke-width: 0.8"/>
      </g>
     </g>
     <g id="text_4">
      <text style="font-size: 10px; font-family: 'DejaVu Sans'; text-anchor: middle" x="289.453333" y="403.198437" transform="rotate(-0 289.453333 403.198437)">2019</text>
     </g>
    </g>
    <g id="xtick_5">
     <g id="line2d_5">
      <g>
       <use xlink:href="#mff93ddb71b" x="369.088385" y="388.6" style="stroke: #000000; stroke-width: 0.8"/>
      </g>
     </g>
     <g id="text_5">
      <text style="font-size: 10px; font-family: 'DejaVu Sans'; text-anchor: middle" x="369.088385" y="403.198437" transform="rotate(-0 369.088385 403.198437)">2020</text>
     </g>
    </g>
    <g id="xtick_6">
     <g id="line2d_6">
      <g>
       <use xlink:href="#mff93ddb71b" x="448.941615" y="388.6" style="stroke: #000000; stroke-width: 0.8"/>
      </g>
     </g>
     <g id="text_6">
      <text style="font-size: 10px; font-family: 'DejaVu Sans'; text-anchor: middle" x="448.941615" y="403.198437" transform="rotate(-0 448.941615 403.198437)">2021</text>
     </g>
    </g>
    <g id="xtick_7">
     <g id="line2d_7">
      <g>
       <use xlink:href="#mff93ddb71b" x="528.576667" y="388.6" style="stroke: #000000; stroke-width: 0.8"/>
      </g>
     </g>
     <g id="text_7">
      <text style="font-size: 10px; font-family: 'DejaVu Sans'; text-anchor: middle" x="528.576667" y="403.198437" transform="rotate(-0 528.576667 403.198437)">2022</text>
     </g>
    </g>
    <g id="xtick_8">
     <g id="line2d_8">
      <g>
       <use xlink:href="#mff93ddb71b" x="608.211718" y="388.6" style="stroke: #000000; stroke-width: 0.8"/>
      </g>
     </g>
     <g id="text_8">
      <text style="font-size: 10px; font-family: 'DejaVu Sans'; text-anchor: middle" x="608.211718" y="403.198437" transform="rotate(-0 608.211718 403.198437)">2023</text>
     </g>
    </g>
    <g id="xtick_9">
     <g id="line2d_9">
      <g>
       <use xlink:href="#mff93ddb71b" x="687.84677" y="388.6" style="stroke: #000000; stroke-width: 0.8"/>
      </g>
     </g>
     <g id="text_9">
      <text style="font-size: 10px; font-family: 'DejaVu Sans'; text-anchor: middle" x="687.84677" y="403.198437" transform="rotate(-0 687.84677 403.198437)">2024</text>
     </g>
    </g>
    <g id="xtick_10">
     <g id="line2d_10">
      <g>
       <use xlink:href="#mff93ddb71b" x="767.7" y="388.6" style="stroke: #000000; stroke-width: 0.8"/>
      </g>
     </g>
     <g id="text_10">
      <text style="font-size: 10px; font-family: 'DejaVu Sans'; text-anchor: middle" x="767.7" y="403.198437" transform="rotate(-0 767.7 403.198437)">2025</text>
     </g>
    </g>
    <g id="text_11">
     <text style="font-size: 10px; font-family: 'DejaVu Sans'; text-anchor: middle" x="409.015" y="416.876562" transform="rotate(-0 409.015 416.876562)">Year</text>
    </g>
   </g>
   <g id="matplotlib.axis_2">
    <g id="ytick_1">
     <g id="line2d_11">
      <path d="M 50.33 388.6 
L 767.7 388.6 
" clip-path="url(#p54b9043ae5)" style="fill: none; stroke: #b0b0b0; stroke-opacity: 0.1; stroke-width: 0.8; stroke-linecap: square"/>
     </g>
     <g id="line2d_12">
      <defs>
       <path id="m1f2758809b" d="M 0 0 
L -3.5 0 
" style="stroke: #000000; stroke-width: 0.8"/>
      </defs>
      <g>
       <use xlink:href="#m1f2758809b" x="50.33" y="388.6" style="stroke: #000000; stroke-width: 0.8"/>
      </g>
     </g>
     <g id="text_12">
      <text style="font-size: 10px; font-family: 'DejaVu Sans'; text-anchor: end" x="43.33" y="392.399219" transform="rotate(-0 43.33 392.399219)">0</text>
     </g>
    </g>
    <g id="ytick_2">
     <g id="line2d_13">
      <path d="M 50.33 321.952 
L 767.7 321.952 
" clip-path="url(#p54b9043ae5)" style="fill: none; stroke: #b0b0b0; stroke-opacity: 0.1; stroke-width: 0.8; stroke-linecap: square"/>
     </g>
     <g id="line2d_14">
      <g>
       <use xlink:href="#m1f2758809b" x="50.33" y="321.952" style="stroke: #000000; stroke-width: 0.8"/>
      </g>
     </g>
     <g id="text_13">
      <text style="font-size: 10px; font-family: 'DejaVu Sans'; text-anchor: end" x="43.33" y="325.751219" transform="rotate(-0 43.33 325.751219)">20</text>
     </g>
    </g>
    <g id="ytick_3">
     <g id="line2d_15">
      <path d="M 50.33 255.304 
L 767.7 255.304 
" clip-path="url(#p54b9043ae5)" style="fill: none; stroke: #b0b0b0; stroke-opacity: 0.1; stroke-width: 0.8; stroke-linecap: square"/>
     </g>
     <g id="line2d_16">
      <g>
       <use xlink:href="#m1f2758809b" x="50.33" y="255.304" style="stroke: #000000; stroke-width: 0.8"/>
      </g>
     </g>
     <g id="text_14">
      <text style="font-size: 10px; font-family: 'DejaVu Sans'; text-anchor: end" x="43.33" y="259.103219" transform="rotate(-0 43.33 259.103219)">40</text>
     </g>
    </g>
    <g id="ytick_4">
     <g id="line2d_17">
      <path d="M 50.33 188.656 
L 767.7 188.656 
" clip-path="url(#p54b9043ae5)" style="fill: none; stroke: #b0b0b0; stroke-opacity: 0.1; stroke-width: 0.8; stroke-linecap: square"/>
     </g>
     <g id="line2d_18">
      <g>
       <use xlink:href="#m1f2758809b" x="50.33" y="188.656" style="stroke: #000000; stroke-width: 0.8"/>
      </g>
     </g>
     <g id="text_15">
      <text style="font-size: 10px; font-family: 'DejaVu Sans'; text-anchor: end" x="43.33" y="192.455219" transform="rotate(-0 43.33 192.455219)">60</text>
     </g>
    </g>
    <g id="ytick_5">
     <g id="line2d_19">
      <path d="M 50.33 122.008 
L 767.7 122.008 
" clip-path="url(#p54b9043ae5)" style="fill: none; stroke: #b0b0b0; stroke-opacity: 0.1; stroke-width: 0.8; stroke-linecap: square"/>
     </g>
     <g id="line2d_20">
      <g>
       <use xlink:href="#m1f2758809b" x="50.33" y="122.008" style="stroke: #000000; stroke-width: 0.8"/>
      </g>
     </g>
     <g id="text_16">
      <text style="font-size: 10px; font-family: 'DejaVu Sans'; text-anchor: end" x="43.33" y="125.807219" transform="rotate(-0 43.33 125.807219)">80</text>
     </g>
    </g>
    <g id="ytick_6">
     <g id="line2d_21">
      <path d="M 50.33 55.36 
L 767.7 55.36 
" clip-path="url(#p54b9043ae5)" style="fill: none; stroke: #b0b0b0; stroke-opacity: 0.1; stroke-width: 0.8; stroke-linecap: square"/>
     </g>
     <g id="line2d_22">
      <g>
       <use xlink:href="#m1f2758809b" x="50.33" y="55.36" style="stroke: #000000; stroke-width: 0.8"/>
      </g>
     </g>
     <g id="text_17">
      <text style="font-size: 10px; font-family: 'DejaVu Sans'; text-anchor: end" x="43.33" y="59.159219" transform="rotate(-0 43.33 59.159219)">100</text>
     </g>
    </g>
    <g id="text_18">
     <text style="font-size: 10px; font-family: 'DejaVu Sans'; text-anchor: middle" x="18.162813" y="221.98" transform="rotate(-90 18.162813 221.98)">Share of total U.S. LNG exports (%)</text>
    </g>
   </g>
   <g id="line2d_23">
    <path d="M 528.576667 388.6 
L 528.576667 55.36 
" clip-path="url(#p54b9043ae5)" style="fill: none; stroke-dasharray: 3.7,1.6; stroke-dashoffset: 0; stroke: #000000; stroke-opacity: 0.6"/>
   </g>
   <g id="patch_3">
    <path d="M 50.33 388.6 
L 50.33 55.36 
" style="fill: none; stroke: #000000; stroke-width: 0.8; stroke-linejoin: miter; stroke-linecap: square"/>
   </g>
   <g id="patch_4">
    <path d="M 767.7 388.6 
L 767.7 55.36 
" style="fill: none; stroke: #000000; stroke-width: 0.8; stroke-linejoin: miter; stroke-linecap: square"/>
   </g>
   <g id="patch_5">
    <path d="M 50.33 388.6 
L 767.7 388.6 
" style="fill: none; stroke: #000000; stroke-width: 0.8; stroke-linejoin: miter; stroke-linecap: square"/>
   </g>
   <g id="patch_6">
    <path d="M 50.33 55.36 
L 767.7 55.36 
" style="fill: none; stroke: #000000; stroke-width: 0.8; stroke-linejoin: miter; stroke-linecap: square"/>
   </g>
   <g id="text_19">
    <text style="font-size: 10px; font-family: 'DejaVu Sans'; text-anchor: start" x="561.521578" y="69.942313" transform="rotate(-0 561.521578 69.942313)">Russia invades Ukraine</text>
   </g>
   <g id="text_20">
    <text style="font-size: 12px; font-family: 'DejaVu Sans'; text-anchor: middle; fill: #696969" x="409.015" y="45.36" transform="rotate(-0 409.015 45.36)">Share of U.S. LNG exports have shifted geographically away from Latin America and other regions</text>
   </g>
   <g id="legend_1">
    <g id="patch_7">
     <path d="M 58.73 135.415 
L 256.29125 135.415 
Q 258.69125 135.415 258.69125 133.015 
L 258.69125 63.76 
Q 258.69125 61.36 256.29125 61.36 
L 58.73 61.36 
Q 56.33 61.36 56.33 63.76 
L 56.33 133.015 
Q 56.33 135.415 58.73 135.415 
z
" style="fill: #ffffff; opacity: 0.85"/>
    </g>
    <g id="patch_8">
     <path d="M 61.13 75.278125 
L 82.73 75.278125 
L 82.73 66.878125 
L 61.13 66.878125 
z
" style="fill: #1f4e79"/>
    </g>
    <g id="text_21">
     <text style="font-size: 12px; font-family: 'DejaVu Sans'; text-anchor: start" x="92.33" y="75.278125" transform="rotate(-0 92.33 75.278125)">Europe</text>
    </g>
    <g id="patch_9">
     <path d="M 61.13 92.891875 
L 82.73 92.891875 
L 82.73 84.491875 
L 61.13 84.491875 
z
" style="fill: #4aa3df"/>
    </g>
    <g id="text_22">
     <text style="font-size: 12px; font-family: 'DejaVu Sans'; text-anchor: start" x="92.33" y="92.891875" transform="rotate(-0 92.33 92.891875)">Asia</text>
    </g>
    <g id="patch_10">
     <path d="M 61.13 110.505625 
L 82.73 110.505625 
L 82.73 102.105625 
L 61.13 102.105625 
z
" style="fill: #9ecae1"/>
    </g>
    <g id="text_23">
     <text style="font-size: 12px; font-family: 'DejaVu Sans'; text-anchor: start" x="92.33" y="110.505625" transform="rotate(-0 92.33 110.505625)">Latin America &amp; Caribbean</text>
    </g>
    <g id="patch_11">
     <path d="M 61.13 128.119375 
L 82.73 128.119375 
L 82.73 119.719375 
L 61.13 119.719375 
z
" style="fill: #d9d9d9"/>
    </g>
    <g id="text_24">
     <text style="font-size: 12px; font-family: 'DejaVu Sans'; text-anchor: start" x="92.33" y="128.119375" transform="rotate(-0 92.33 128.119375)">Rest of World</text>
    </g>
   </g>
  </g>
  <g id="text_25">
   <text style="font-size: 16px; font-family: 'DejaVu Sans'; text-anchor: middle" x="395.28" y="19.3575" transform="rotate(-0 395.28 19.3575)">Europe beats Asia as the main market for U.S. LNG</text>
  </g>
  <g id="text_26">
   <text style="font-size: 9px; font-family: 'DejaVu Sans'; fill: #696969" transform="translate(7.2 437.761969)">Source: U.S. Energy Information Administration (EIA) data.</text>
   <text style="font-size: 9px; font-family: 'DejaVu Sans'; fill: #696969" transform="translate(7.2 447.84)">Note: Shares reflect destinations of U.S. LNG exports by volume in Bcf/year; includes regions with reported trade only.</text>
  </g>
 </g>
 <defs>
  <clipPath id="p54b9043ae5">
   <rect x="50.33" y="55.36" width="717.37" height="333.24"/>
  </clipPath>
 </defs>
</svg>
